<?xml version="1.0" standalone="no"?>
<!DOCTYPE svg PUBLIC "-//W3C//DTD SVG 20010904//EN"
 "http://www.w3.org/TR/2001/REC-SVG-20010904/DTD/svg10.dtd">
<svg version="1.0" xmlns="http://www.w3.org/2000/svg"
 width="160.000000pt" height="160.000000pt" viewBox="0 0 160.000000 160.000000"
 preserveAspectRatio="xMidYMid meet">
<metadata>
Created by potrace 1.14, written by Peter Selinger 2001-2017
</metadata>
<g transform="translate(0.000000,160.000000) scale(0.100000,-0.100000)"
fill="#000000" stroke="none">
<path d="M327 1519 c-50 -14 -116 -52 -155 -89 -87 -84 -123 -182 -118 -319 9
-203 122 -412 369 -679 23 -25 69 -75 102 -111 33 -36 108 -114 166 -175 l106
-109 49 50 c106 107 262 273 324 342 36 41 70 79 75 85 6 6 26 31 45 56 19 25
38 47 42 50 3 3 28 37 53 75 159 236 201 465 118 630 -94 185 -315 256 -498
158 -53 -28 -124 -91 -170 -152 l-38 -49 -35 46 c-35 46 -48 60 -110 114 -81
71 -223 105 -325 77z"/>
</g>
</svg>
